<svg width="75" height="75" viewBox="0 0 75 75" fill="none" xmlns="http://www.w3.org/2000/svg">
<ellipse cx="37.5" cy="37.5" rx="37.5" ry="37.5" fill="#7367F0" fill-opacity="0.12"/>
<path fill-rule="evenodd" clip-rule="evenodd" d="M55.4348 39.131H52.174V34.2397H55.4348C56.4131 34.2397 57.0653 33.5875 57.0653 32.6092C57.0653 31.631 56.4131 30.9788 55.4348 30.9788H52.174V27.7179C52.174 24.9462 50.0544 22.8266 47.2826 22.8266H44.0218V19.5657C44.0218 18.5875 43.3696 17.9353 42.3913 17.9353C41.4131 17.9353 40.7609 18.5875 40.7609 19.5657V22.8266H34.2392V19.5657C34.2392 18.5875 33.587 17.9353 32.6087 17.9353C31.6305 17.9353 30.9783 18.5875 30.9783 19.5657V22.8266H27.7174C24.9457 22.8266 22.8261 24.9462 22.8261 27.7179V30.9788H19.5652C18.587 30.9788 17.9348 31.631 17.9348 32.6092C17.9348 33.5875 18.587 34.2397 19.5652 34.2397H22.8261V39.131H19.5652C18.587 39.131 17.9348 39.7831 17.9348 40.7614C17.9348 41.7397 18.587 42.3918 19.5652 42.3918H22.8261V47.2831C22.8261 50.0549 24.9457 52.1744 27.7174 52.1744H30.9783V55.4353C30.9783 56.4136 31.6305 57.0657 32.6087 57.0657C33.587 57.0657 34.2392 56.4136 34.2392 55.4353V52.1744H40.7609V55.4353C40.7609 56.4136 41.4131 57.0657 42.3913 57.0657C43.3696 57.0657 44.0218 56.4136 44.0218 55.4353V52.1744H47.2826C50.0544 52.1744 52.174 50.0549 52.174 47.2831V42.3918H55.4348C56.4131 42.3918 57.0653 41.7397 57.0653 40.7614C57.0653 39.7831 56.4131 39.131 55.4348 39.131ZM32.6087 30.9788H42.3913C43.3696 30.9788 44.0218 31.631 44.0218 32.6093V42.3919C44.0218 43.3701 43.3696 44.0223 42.3913 44.0223H32.6087C31.6305 44.0223 30.9783 43.3701 30.9783 42.3919V32.6093C30.9783 31.631 31.6305 30.9788 32.6087 30.9788ZM34.2392 40.7614H40.7609V34.2397H34.2392V40.7614ZM47.2826 48.9136C48.2609 48.9136 48.9131 48.2614 48.9131 47.2831V27.7179C48.9131 26.7397 48.2609 26.0875 47.2826 26.0875H27.7174C26.7392 26.0875 26.087 26.7397 26.087 27.7179V47.2831C26.087 48.2614 26.7392 48.9136 27.7174 48.9136H47.2826Z" fill="black"/>
<mask id="mask0" style="mask-type:alpha" maskUnits="userSpaceOnUse" x="17" y="17" width="41" height="41">
<path fill-rule="evenodd" clip-rule="evenodd" d="M55.4348 39.131H52.174V34.2397H55.4348C56.4131 34.2397 57.0653 33.5875 57.0653 32.6092C57.0653 31.631 56.4131 30.9788 55.4348 30.9788H52.174V27.7179C52.174 24.9462 50.0544 22.8266 47.2826 22.8266H44.0218V19.5657C44.0218 18.5875 43.3696 17.9353 42.3913 17.9353C41.4131 17.9353 40.7609 18.5875 40.7609 19.5657V22.8266H34.2392V19.5657C34.2392 18.5875 33.587 17.9353 32.6087 17.9353C31.6305 17.9353 30.9783 18.5875 30.9783 19.5657V22.8266H27.7174C24.9457 22.8266 22.8261 24.9462 22.8261 27.7179V30.9788H19.5652C18.587 30.9788 17.9348 31.631 17.9348 32.6092C17.9348 33.5875 18.587 34.2397 19.5652 34.2397H22.8261V39.131H19.5652C18.587 39.131 17.9348 39.7831 17.9348 40.7614C17.9348 41.7397 18.587 42.3918 19.5652 42.3918H22.8261V47.2831C22.8261 50.0549 24.9457 52.1744 27.7174 52.1744H30.9783V55.4353C30.9783 56.4136 31.6305 57.0657 32.6087 57.0657C33.587 57.0657 34.2392 56.4136 34.2392 55.4353V52.1744H40.7609V55.4353C40.7609 56.4136 41.4131 57.0657 42.3913 57.0657C43.3696 57.0657 44.0218 56.4136 44.0218 55.4353V52.1744H47.2826C50.0544 52.1744 52.174 50.0549 52.174 47.2831V42.3918H55.4348C56.4131 42.3918 57.0653 41.7397 57.0653 40.7614C57.0653 39.7831 56.4131 39.131 55.4348 39.131ZM32.6087 30.9788H42.3913C43.3696 30.9788 44.0218 31.631 44.0218 32.6093V42.3919C44.0218 43.3701 43.3696 44.0223 42.3913 44.0223H32.6087C31.6305 44.0223 30.9783 43.3701 30.9783 42.3919V32.6093C30.9783 31.631 31.6305 30.9788 32.6087 30.9788ZM34.2392 40.7614H40.7609V34.2397H34.2392V40.7614ZM47.2826 48.9136C48.2609 48.9136 48.9131 48.2614 48.9131 47.2831V27.7179C48.9131 26.7397 48.2609 26.0875 47.2826 26.0875H27.7174C26.7392 26.0875 26.087 26.7397 26.087 27.7179V47.2831C26.087 48.2614 26.7392 48.9136 27.7174 48.9136H47.2826Z" fill="white"/>
</mask>
<g mask="url(#mask0)">
<rect x="17.9348" y="17.9353" width="39.1304" height="39.1304" fill="#7367F0"/>
</g>
</svg>
