<svg width="25" height="22" viewBox="0 0 25 22" fill="none" xmlns="http://www.w3.org/2000/svg">
<path d="M11.7999 14.3917L5.79994 8.89171C5.59994 8.70837 5.49994 8.52504 5.49994 8.25004C5.49994 7.97504 5.59994 7.79171 5.79994 7.60837C6.19994 7.24171 6.79994 7.24171 7.19994 7.60837L12.4999 12.4667L17.7999 7.60837C18.1999 7.24171 18.7999 7.24171 19.1999 7.60837C19.5999 7.97504 19.5999 8.52504 19.1999 8.89171L13.1999 14.3917C12.7999 14.7584 12.1999 14.7584 11.7999 14.3917Z" fill="#FBFBFB"/>
<mask id="mask0" mask-type="alpha" maskUnits="userSpaceOnUse" x="5" y="7" width="15" height="8">
<path d="M11.7999 14.3917L5.79994 8.89171C5.59994 8.70837 5.49994 8.52504 5.49994 8.25004C5.49994 7.97504 5.59994 7.79171 5.79994 7.60837C6.19994 7.24171 6.79994 7.24171 7.19994 7.60837L12.4999 12.4667L17.7999 7.60837C18.1999 7.24171 18.7999 7.24171 19.1999 7.60837C19.5999 7.97504 19.5999 8.52504 19.1999 8.89171L13.1999 14.3917C12.7999 14.7584 12.1999 14.7584 11.7999 14.3917Z" fill="white"/>
</mask>
<g mask="url(#mask0)">
</g>
</svg>
